<svg height="72" viewBox="0 0 512 512" width="72" xmlns="http://www.w3.org/2000/svg"><ellipse cx="231.55" cy="266.131" fill="#7364e1" rx="237.661" ry="118.83" transform="matrix(.70710179603 .70709820397 -.70709820397 .70710179603 280.45196523 -95.90836355)"/><ellipse cx="231.55" cy="266.131" fill="#5f559b" rx="176.377" ry="87.564" transform="matrix(.70710179603 .70709820397 -.70709820397 .70710179603 280.45203594 -95.90843426)"/><ellipse cx="231.55" cy="266.131" fill="#50418c" rx="109.322" ry="56.289" transform="matrix(.70710179603 .70709820397 -.70709820397 .70710179603 280.45196523 -95.90836355)"/><ellipse cx="231.55" cy="266.131" fill="#3c2364" rx="53.478" ry="25.017" transform="matrix(.70710179603 .70709820397 -.70709820397 .70710179603 280.45203594 -95.90843426)"/><path d="m226.855 426.662c2.772-2.772 2.713-7.272-.119-9.98-2.786-2.663-5.567-5.351-8.331-8.114-120.902-120.901-179.132-258.688-130.064-307.756 45.391-45.391 166.692 1.081 280.322 103.996-8.775-9.919-17.965-19.752-27.637-29.423-96.137-96.138-207.25-148.904-279.58-139.413-27.188 3.568-48.441 24.822-52.009 52.01-9.489 72.328 43.277 183.44 139.414 279.578 22.373 22.372 45.554 42.376 68.869 59.803 2.785 2.082 6.676 1.757 9.135-.701z" fill="#b9b1f0"/><path d="m363.148 144.438c-22.373-22.372-45.554-42.376-68.869-59.803-2.785-2.082-6.676-1.758-9.133.701-2.772 2.772-2.713 7.272.119 9.98 2.786 2.663 5.567 5.351 8.331 8.114 120.902 120.901 179.131 258.688 130.064 307.756-45.391 45.391-166.692-1.081-280.322-103.997 8.775 9.919 17.965 19.752 27.637 29.423 96.137 96.137 207.25 148.903 279.579 139.413 27.188-3.567 48.442-24.822 52.01-52.01 9.488-72.328-43.278-183.439-139.416-279.577z" fill="#b9b1f0"/><path d="m286.461 93.324c5.822 4.293 11.691 8.794 17.443 13.376 1.527 1.216 3.35 1.807 5.161 1.807 2.439 0 4.854-1.07 6.491-3.127 2.854-3.582 2.263-8.798-1.319-11.652-5.913-4.71-11.946-9.337-17.933-13.752-3.685-2.719-8.877-1.935-11.594 1.752-2.72 3.686-1.935 8.878 1.751 11.596z"/><path d="m181.077 382.48c-8.972-8.019-17.886-16.451-26.497-25.062-58.743-58.743-102.925-124.831-124.406-186.092-20.772-59.237-17.738-106.333 8.541-132.613 25.211-25.211 70.048-29.009 126.25-10.692 4.355 1.418 9.034-.961 10.453-5.315s-.961-9.034-5.315-10.453c-62.439-20.349-113.265-15.116-143.115 14.734-31.034 31.034-35.46 84.243-12.464 149.826 21.566 61.502 64.936 127.446 122.503 186.433l-54.942 54.942c-3.238 3.238-3.238 8.489 0 11.726 1.619 1.619 3.741 2.429 5.863 2.429s4.244-.809 5.863-2.429l54.946-54.946c6.975 6.805 14.1 13.472 21.267 19.878 1.582 1.414 3.556 2.109 5.524 2.109 2.279 0 4.547-.934 6.185-2.765 3.052-3.416 2.758-8.657-.656-11.71z"/><path d="m225.53 418.668c-5.82-4.292-11.688-8.792-17.441-13.375-3.581-2.854-8.798-2.263-11.652 1.319s-2.263 8.798 1.319 11.652c5.913 4.711 11.946 9.337 17.931 13.75 1.482 1.092 3.205 1.619 4.916 1.619 2.544 0 5.055-1.166 6.68-3.371 2.717-3.685 1.932-8.877-1.753-11.594z"/><path d="m497.475 335.185c-21.566-61.501-64.935-127.445-122.502-186.433l54.942-54.942c3.238-3.238 3.238-8.489 0-11.726-3.238-3.238-8.489-3.238-11.726 0l-54.946 54.946c-6.97-6.799-14.092-13.463-21.257-19.868-3.415-3.053-8.656-2.76-11.708.656-3.053 3.414-2.758 8.657.656 11.708 6.937 6.2 13.832 12.649 20.583 19.232l-11.543 11.543c-27.777-26.84-58.32-49.915-88.756-67.007-3.993-2.241-9.048-.824-11.29 3.17-2.242 3.993-.824 9.048 3.17 11.29 29.142 16.365 58.437 38.498 85.147 64.277l-10.397 10.397c-32.726-31.293-69.263-54.698-103.612-66.257-38.393-12.92-69.935-9.636-88.817 9.246-18.883 18.882-22.166 50.424-9.246 88.817 12.262 36.44 37.851 75.343 72.052 109.543s73.104 59.79 109.543 72.052c15.423 5.19 29.737 7.765 42.573 7.765 19.116 0 34.947-5.714 46.244-17.011 18.883-18.882 22.166-50.424 9.246-88.817-11.559-34.35-34.964-70.887-66.257-103.612l10.397-10.397c41.065 42.512 71.629 89.935 86.41 134.28 14.826 44.476 11.916 80.044-8.19 100.151-22.303 22.305-64.142 23.317-114.785 2.777-4.242-1.721-9.079.323-10.801 4.567s.324 9.079 4.567 10.801c26.08 10.576 50.336 15.836 71.593 15.836 25.297 0 46.347-7.451 61.151-22.255 24.781-24.781 29.113-66.376 12.197-117.122-15.572-46.718-47.556-96.443-90.415-140.763l11.547-11.547c55.837 57.245 97.816 120.973 118.582 180.191 20.772 59.237 17.738 106.333-8.541 132.612-25.225 25.224-70.092 29.013-126.334 10.665-4.355-1.42-9.035.959-10.456 5.311-1.421 4.354.959 9.035 5.311 10.456 25.06 8.175 48.245 12.231 68.961 12.23 30.935 0 56.357-9.048 74.244-26.936 31.033-31.034 35.46-84.243 12.463-149.826zm-117.364-32.13c10.805 32.109 8.939 57.608-5.254 71.801s-39.692 16.06-71.801 5.254c-34.063-11.463-70.679-35.634-103.106-68.061s-56.598-69.044-68.061-103.106c-10.805-32.109-8.939-57.608 5.254-71.801 8.107-8.107 19.9-12.191 34.508-12.191 10.968 0 23.524 2.304 37.292 6.938 32.001 10.769 66.256 32.756 97.174 62.267l-10.436 10.436c-45.397-42.192-98.327-56.281-122.849-31.758-12.938 12.938-15.614 33.954-7.536 59.177 7.478 23.353 23.473 48.089 45.038 69.654 31.777 31.777 68.172 49.548 96.241 49.548 13.125 0 24.433-3.887 32.591-12.047 12.938-12.938 15.614-33.954 7.536-59.177-6.796-21.223-20.644-43.581-39.295-63.67l10.437-10.437c29.51 30.917 51.498 65.172 62.267 97.173zm-129.975-41.193c1.619 1.619 3.741 2.429 5.863 2.429s4.244-.809 5.863-2.429l11.594-11.594c14.64 17.142 18.704 33.472 14.493 37.682-4.711 4.707-24.571-.919-43.778-20.125-19.208-19.208-24.833-39.069-20.125-43.778 1.037-1.037 2.808-1.572 5.145-1.572 7.155 0 19.615 5.034 32.536 16.068l-11.592 11.592c-3.237 3.239-3.237 8.49.001 11.727zm23.354-35.08c-23.378-20.47-48.818-26.811-61.169-14.46-13.428 13.428-4.775 42.331 20.125 67.231 16.999 16.999 35.86 26.424 50.392 26.424 6.755 0 12.577-2.039 16.838-6.299 12.35-12.351 6.01-37.791-14.46-61.169l10.458-10.458c16.807 18.199 29.215 38.195 35.235 56.995 6 18.737 4.736 34.189-3.468 42.393-8.206 8.204-23.658 9.468-42.393 3.468-20.885-6.688-43.253-21.238-62.985-40.97s-34.283-42.101-40.97-62.985c-6-18.737-4.736-34.189 3.468-42.393 4.785-4.785 12.032-7.21 20.961-7.21 6.382 0 13.623 1.239 21.432 3.74 18.8 6.02 38.796 18.427 56.995 35.235z"/><path d="m268.903 404.245c-31.31-17.582-62.799-41.817-91.066-70.083-43.995-43.995-76.746-93.786-92.216-140.201-14.826-44.476-11.916-80.044 8.19-100.151 22.304-22.303 64.142-23.316 114.785-2.777 4.242 1.721 9.079-.323 10.801-4.567 1.721-4.244-.324-9.079-4.567-10.801-57.118-23.164-105.5-20.824-132.744 6.419-24.781 24.781-29.113 66.376-12.197 117.122 16.269 48.808 50.442 100.902 96.223 146.682 29.323 29.323 62.06 54.503 94.672 72.817 1.285.721 2.678 1.064 4.053 1.064 2.901 0 5.716-1.525 7.237-4.233 2.241-3.994.822-9.049-3.171-11.291z"/></svg>