<svg fill="none" height="220" viewBox="0 0 220 220" width="220" xmlns="http://www.w3.org/2000/svg" xmlns:xlink="http://www.w3.org/1999/xlink"><clipPath id="a"><path d="m0 0h220v220h-220z"/></clipPath><g clip-path="url(#a)"><path d="m143.745 11.9446h-67.4963v14.3474h67.4963z" fill="#fcbc1d"/><path d="m87.3712 11.9446h-11.1225v14.3474h11.1225z" fill="#000" opacity=".25"/><path d="m216.522 162.623c1.546 6.358-1.113 13.014-6.638 16.519-.025.012-.055.031-.079.049-14.907 9.413-31.013 16.629-47.813 21.491-16.805 4.867-34.304 7.374-51.998 7.374-34.4086 0-68.0744-9.492-97.329-27.326-.718-.438-1.655-1.04-2.68936-1.709-5.43351-3.536-8.03162-10.131-6.49831-16.429l.74232-3.036.54761.134h38.49704 133.4707 37.426l1.552-.377zm-25.525 11.226c0-3.529-2.859-6.389-6.388-6.389-3.53 0-6.389 2.86-6.389 6.389 0 3.523 2.859 6.388 6.389 6.388 3.529 0 6.388-2.865 6.388-6.388zm-49.741 9.26c0-3.529-2.86-6.388-6.389-6.388-3.523 0-6.388 2.859-6.388 6.388s2.865 6.389 6.388 6.389c3.529 0 6.389-2.86 6.389-6.389zm-49.7412 0c0-3.529-2.8597-6.388-6.3888-6.388-3.5229 0-6.3888 2.859-6.3888 6.388s2.8659 6.389 6.3888 6.389c3.5291 0 6.3888-2.86 6.3888-6.389zm-49.7352-9.26c0-3.529-2.8658-6.389-6.3888-6.389-3.529 0-6.3887 2.86-6.3887 6.389 0 3.523 2.8597 6.388 6.3887 6.388 3.523 0 6.3888-2.865 6.3888-6.388z" fill="#fcbc1d"/><path d="m52.2147 180.73c-.718-.438-1.655-1.04-2.6894-1.709-5.4335-3.536-8.0316-10.131-6.4983-16.429l.7119-2.902h-38.97164l-.54761-.134-.74232 3.036c-1.53331 6.298 1.0648 12.893 6.49831 16.429 1.03436.669 1.97136 1.271 2.68936 1.709 29.2546 17.834 62.9204 27.326 97.329 27.326 6.62 0 13.215-.353 19.762-1.046-27.435-2.921-53.9272-11.884-77.5413-26.28zm163.4983-21.417-1.552.377h1.643z" fill="#000" opacity=".25"/><path d="m153.437 129.279c1.308 5.014-2.756 10.021-8.664 10.46-23.152 1.709-46.3949 1.709-69.5466 0-5.9081-.432-9.9726-5.44-8.6644-10.46 3.3891-13.234 6.5956-26.51 9.6136-39.8049.9552-4.1375 4.7824-6.9547 9.0051-6.7052 16.5313.9918 33.1063.9918 49.6383 0 4.228-.2495 8.049 2.5677 9.005 6.7052 3.018 13.2949 6.224 26.5709 9.613 39.8049zm-27.496-17.389c0-8.202-7.137-14.8528-15.941-14.8528-8.805 0-15.9419 6.6508-15.9419 14.8528s7.1369 14.852 15.9419 14.852c8.804 0 15.941-6.65 15.941-14.852z" fill="#20505b"/><path d="m110 126.742c8.804 0 15.941-6.65 15.941-14.852 0-8.203-7.137-14.8528-15.941-14.8528-8.805 0-15.9419 6.6498-15.9419 14.8528 0 8.202 7.1369 14.852 15.9419 14.852z" fill="#61ccf2"/><path d="m110 97.0372c8.804 0 15.941 6.6508 15.941 14.8528s-7.137 14.852-15.941 14.852" fill="#fff"/><path d="m35.3909 167.46c3.5229 0 6.3888 2.86 6.3888 6.389 0 3.523-2.8659 6.388-6.3888 6.388-3.5291 0-6.3888-2.865-6.3888-6.388 0-3.529 2.8597-6.389 6.3888-6.389z" fill="#f24125"/><path d="m85.1261 176.721c3.529 0 6.3888 2.859 6.3888 6.388s-2.8598 6.389-6.3888 6.389c-3.523 0-6.3888-2.86-6.3888-6.389s2.8658-6.388 6.3888-6.388z" fill="#f24125"/><path d="m134.867 176.721c3.529 0 6.389 2.859 6.389 6.388s-2.86 6.389-6.389 6.389c-3.523 0-6.388-2.86-6.388-6.389s2.865-6.388 6.388-6.388z" fill="#f24125"/><path d="m184.609 167.46c3.529 0 6.388 2.86 6.388 6.389 0 3.523-2.859 6.388-6.388 6.388s-6.389-2.865-6.389-6.388c0-3.529 2.86-6.389 6.389-6.389z" fill="#f24125"/><path d="m56.9242 62.7872v1.0587l-13.6599 95.8441h-38.49696l-.54761-.134 23.58987-96.7688z" fill="#1aa5e2"/><path d="m56.9242 62.7872v1.0587l-13.6599 95.8441h-38.49696l-.54761-.134 23.58987-96.7688z" fill="#000" opacity=".25"/><path d="m192.184 62.7872 23.529 96.5258-1.552.377h-37.426l-13.66-95.8441v-1.0587z" fill="#45bce5"/><path d="m188.728 48.6163 3.456 14.1709h-29.109-106.1508-29.1146l3.456-14.1709z" fill="#fcbc1d"/><path d="m187.365 43.0124 1.363 5.6039h-157.4625l1.3629-5.6039c2.3913-9.8144 11.1774-16.7203 21.2777-16.7203h22.3425 67.4964 22.342c10.101 0 18.887 6.9059 21.278 16.7203z" fill="#1aa5e2"/><path d="m87.3712 26.2921c-10.1004 0-18.8865 6.9059-21.2777 16.7203l-1.3629 5.6039h-33.4651l1.3629-5.6039c2.3913-9.8144 11.1774-16.7203 21.2777-16.7203z" fill="#000" opacity=".25"/><path d="m163.075 63.8459 13.66 95.8441h-133.4707l13.6598-95.8441v-1.0587h106.1509zm-18.302 75.8931c5.908-.439 9.973-5.446 8.664-10.46-3.389-13.234-6.595-26.51-9.613-39.805-.955-4.1375-4.777-6.9546-9.005-6.7051-16.532.9917-33.106.9917-49.6382 0-4.2227-.2495-8.0499 2.5676-9.0051 6.7051-3.018 13.295-6.2245 26.571-9.6136 39.805-1.3082 5.02 2.7563 10.028 8.6644 10.46 23.1517 1.709 46.3945 1.709 69.5465 0z" fill="#1aa5e2"/><g fill="#333"><path d="m129.703 65.8294h-101.8935c-1.68 0-3.0423-1.3623-3.0423-3.0422 0-1.68 1.3623-3.0423 3.0423-3.0423h101.8935c1.68 0 3.043 1.3623 3.043 3.0423 0 1.6799-1.362 3.0422-3.043 3.0422z"/><path d="m192.184 65.8294h-48.689c-1.68 0-3.042-1.3623-3.042-3.0422 0-1.68 1.362-3.0423 3.042-3.0423h48.689c1.68 0 3.042 1.3623 3.042 3.0423 0 1.6799-1.362 3.0422-3.042 3.0422z"/><path d="m158.098 51.6585h-126.8325c-1.6799 0-3.0422-1.3623-3.0422-3.0422 0-1.68 1.3623-3.0423 3.0422-3.0423h126.8325c1.68 0 3.042 1.3623 3.042 3.0423 0 1.6799-1.362 3.0422-3.042 3.0422z"/><path d="m188.728 51.6585h-18.867c-1.68 0-3.042-1.3623-3.042-3.0422 0-1.68 1.362-3.0423 3.042-3.0423h18.867c1.68 0 3.042 1.3623 3.042 3.0423 0 1.6799-1.362 3.0422-3.042 3.0422z"/><path d="m76.2487 29.3343c-1.6799 0-3.0423-1.3623-3.0423-3.0423v-14.3474c0-1.6799 1.3624-3.04226 3.0423-3.04226 1.68 0 3.0423 1.36236 3.0423 3.04226v14.3474c0 1.6806-1.3623 3.0423-3.0423 3.0423z"/><path d="m143.745 29.3343c-1.68 0-3.043-1.3623-3.043-3.0423v-14.3474c0-1.6799 1.363-3.04226 3.043-3.04226s3.042 1.36236 3.042 3.04226v14.3474c0 1.6806-1.362 3.0423-3.042 3.0423z"/><path d="m110 144.059c-11.6936 0-23.3869-.429-34.9981-1.286-3.9525-.289-7.4687-2.198-9.6464-5.238-1.9051-2.661-2.5385-5.949-1.7378-9.022 3.3654-13.142 6.5933-26.507 9.5905-39.7119 1.293-5.599 6.4058-9.4153 12.1515-9.0684 16.3503.9808 32.9283.9808 49.2763 0 5.754-.3353 10.862 3.47 12.152 9.058 2.999 13.2153 6.227 26.5803 9.596 39.7343.797 3.054.165 6.339-1.737 8.999-2.176 3.043-5.693 4.956-9.65 5.25h-.001c-11.61.856-23.304 1.285-34.996 1.285zm34.773-4.32h.006zm-60.1185-53.9437c-2.631 0-4.92 1.7883-5.5144 4.3632-3.007 13.2475-6.2483 26.6675-9.6307 39.8755-.3523 1.351-.0687 2.752.794 3.958 1.122 1.566 2.9973 2.555 5.1452 2.712 22.9272 1.694 46.1754 1.694 69.1004 0 2.15-.159 4.027-1.151 5.149-2.721.861-1.204 1.144-2.602.796-3.936-3.386-13.221-6.627-26.641-9.637-39.9-.618-2.6748-3.084-4.5075-5.859-4.342-16.586.9955-33.41.9955-49.9991 0-.1156-.006-.2306-.0097-.3444-.0097z"/><path d="m43.2679 162.733c-.143 0-.2878-.011-.4332-.031-1.6635-.237-2.8196-1.778-2.5829-3.441l10.651-74.7355c.2373-1.6635 1.7767-2.8159 3.4415-2.5829 1.6635.2373 2.8195 1.7779 2.5828 3.4414l-10.651 74.735c-.2166 1.518-1.5181 2.614-3.0082 2.614z"/><path d="m55.2873 78.3996c-.143 0-.2878-.0104-.4332-.0304-1.6635-.2373-2.8196-1.778-2.5829-3.4415l1.6404-11.5107c.2373-1.6636 1.7791-2.8154 3.4414-2.5829 1.6636.2373 2.8196 1.7779 2.5829 3.4414l-1.6404 11.5108c-.2166 1.5181-1.5181 2.6133-3.0082 2.6133z"/><path d="m169.594 112.654c-1.49 0-2.792-1.095-3.009-2.614l-6.522-45.7646c-.237-1.6635.919-3.2041 2.583-3.4414 1.663-.2318 3.204.9194 3.441 2.5829l6.523 45.7651c.237 1.663-.92 3.204-2.583 3.441-.145.02-.29.031-.433.031z"/><path d="m176.731 162.733c-1.49 0-2.792-1.095-3.008-2.614l-5.778-40.538c-.236-1.663.92-3.204 2.583-3.441 1.663-.235 3.204.919 3.442 2.583l5.777 40.538c.237 1.663-.919 3.204-2.583 3.441-.145.02-.29.031-.433.031z"/><path d="m110 129.784c-10.4682 0-18.9841-8.027-18.9841-17.894s8.5165-17.8951 18.9841-17.8951c10.467 0 18.984 8.0271 18.984 17.8951 0 9.867-8.516 17.894-18.984 17.894zm0-29.705c-7.113 0-12.8996 5.298-12.8996 11.811 0 6.512 5.7866 11.81 12.8996 11.81 7.112 0 12.899-5.299 12.899-11.81 0-6.512-5.786-11.811-12.899-11.811z"/><path d="m214.161 162.732h-70.261c-1.68 0-3.042-1.362-3.042-3.042s1.362-3.042 3.042-3.042h70.261c1.68 0 3.043 1.362 3.043 3.042s-1.363 3.042-3.043 3.042z"/><path d="m133.354 162.732h-128.58674c-1.67995 0-3.04228-1.362-3.04228-3.042s1.36233-3.042 3.04228-3.042h128.58674c1.68 0 3.042 1.362 3.042 3.042s-1.362 3.042-3.042 3.042z"/><path d="m151.983 14.9869h-83.9728c-1.68 0-3.0423-1.3623-3.0423-3.0423 0-1.6799 1.3623-3.04226 3.0423-3.04226h83.9728c1.68 0 3.042 1.36236 3.042 3.04226 0 1.68-1.362 3.0423-3.042 3.0423z"/><path d="m184.609 183.28c-5.201 0-9.432-4.231-9.432-9.431 0-5.201 4.231-9.431 9.432-9.431 5.2 0 9.431 4.23 9.431 9.431 0 5.2-4.231 9.431-9.431 9.431zm0-12.778c-1.846 0-3.347 1.501-3.347 3.347 0 1.845 1.501 3.346 3.347 3.346 1.845 0 3.346-1.501 3.346-3.346 0-1.846-1.502-3.347-3.346-3.347z"/><path d="m85.126 192.54c-5.2005 0-9.4311-4.23-9.4311-9.431 0-5.2 4.2306-9.431 9.4311-9.431s9.4311 4.231 9.4311 9.431c0 5.201-4.2306 9.431-9.4311 9.431zm0-12.777c-1.8454 0-3.3465 1.501-3.3465 3.346 0 1.846 1.5011 3.347 3.3465 3.347 1.8455 0 3.3465-1.501 3.3465-3.347 0-1.845-1.5017-3.346-3.3465-3.346z"/><path d="m134.867 192.54c-5.2 0-9.431-4.23-9.431-9.431 0-5.2 4.231-9.431 9.431-9.431 5.201 0 9.431 4.231 9.431 9.431 0 5.201-4.23 9.431-9.431 9.431zm0-12.777c-1.845 0-3.346 1.501-3.346 3.346 0 1.846 1.501 3.347 3.346 3.347 1.846 0 3.347-1.501 3.347-3.347 0-1.845-1.502-3.346-3.347-3.346z"/><path d="m35.3909 183.28c-5.2005 0-9.4311-4.231-9.4311-9.431 0-5.201 4.2306-9.431 9.4311-9.431s9.4311 4.23 9.4311 9.431c0 5.2-4.2306 9.431-9.4311 9.431zm0-12.778c-1.8454 0-3.3465 1.501-3.3465 3.347 0 1.845 1.5011 3.346 3.3465 3.346 1.8455 0 3.3465-1.501 3.3465-3.346 0-1.846-1.501-3.347-3.3465-3.347z"/></g><path d="m202.932 148.474c-1.37 0-2.614-.932-2.953-2.322l-13.071-53.6211c-.398-1.6325.603-3.2784 2.235-3.6763 1.631-.3961 3.279.603 3.677 2.2355l13.071 53.6209c.397 1.632-.603 3.278-2.236 3.676-.242.059-.484.087-.723.087z" fill="#fff"/><path d="m187.382 84.6837c-1.37 0-2.615-.9322-2.954-2.3225l-2.031-8.3346c-.398-1.6325.603-3.2784 2.235-3.6763 1.63-.3979 3.279.6024 3.677 2.2354l2.031 8.3347c.398 1.6325-.603 3.2783-2.235 3.6763-.242.059-.485.087-.723.087z" fill="#fff"/><path d="m173.981 41.1846c-.658 0-1.321-.2124-1.878-.6504-1.726-1.3563-3.806-2.0731-6.016-2.0731h-40.846c-1.68 0-3.042-1.3623-3.042-3.0422 0-1.68 1.362-3.0423 3.042-3.0423h40.846c3.535 0 7.007 1.198 9.775 3.3733 1.321 1.038 1.55 2.951.512 4.2719-.599.7643-1.492 1.1628-2.393 1.1628z" fill="#fff"/><path d="m109.994 211.098c-34.9075 0-69.1106-9.602-98.9128-27.77-.7137-.435-1.61847-1.016-2.75872-1.753-6.50743-4.234-9.64037-12.15-7.801617-19.702l.742927-3.039 28.40881-116.5402c2.732-11.2132 12.6973-19.044 24.2336-19.044h112.1808c11.537 0 21.502 7.8308 24.234 19.0422l4.818 19.7742 24.338 99.8338c1.86 7.65-1.341 15.61-7.964 19.811-.026.017-.052.033-.079.049-.002.001-.003.002-.005.003-15.091 9.529-31.439 16.877-48.591 21.841-17.169 4.973-34.948 7.494-52.844 7.494zm-56.0878-181.7637c-8.7222 0-16.2568 5.9209-18.3218 14.3985l-4.819 19.7754-24.33278 99.8068c-1.22847 5.044.86218 10.332 5.20228 13.156 1.0928.707 1.9599 1.263 2.6152 1.662 28.8469 17.585 61.9548 26.881 95.7439 26.881 17.323 0 34.533-2.441 51.152-7.255 16.585-4.799 32.392-11.901 46.985-21.11.061-.04.124-.079.187-.116 4.376-2.815 6.485-8.106 5.248-13.192l-.808-3.306-26.986-110.6977c0-.0006-.001-.0012-.001-.0018l-1.363-5.6039c-2.065-8.4764-9.599-14.3973-18.321-14.3973zm157.3438 152.5267c-.002.001-.004.002-.006.003.002-.001.004-.002.006-.003zm.37-.229c-.001.001-.001.001-.003.002.002-.001.002-.001.003-.002zm-1.736-2.49h.006z" fill="#333"/><path d="m202.214 174.592c-1.078 0-2.121-.574-2.674-1.587-.804-1.475-.261-3.323 1.215-4.128l3.346-1.825c1.475-.804 3.323-.261 4.128 1.215.804 1.475.261 3.322-1.215 4.127l-3.346 1.826c-.463.252-.962.372-1.454.372z" fill="#fff"/><path d="m136.001 21.871c-.201 0-.402-.0244-.596-.0609-.195-.0426-.39-.0973-.572-.1764-.183-.073-.359-.1704-.524-.2799-.164-.1095-.322-.2373-.462-.3772-.14-.14-.268-.2921-.377-.4625-.11-.1643-.207-.3407-.28-.5232-.079-.1826-.134-.3773-.177-.572-.036-.1947-.054-.3955-.054-.5902 0-.2008.018-.4016.054-.5963.043-.1947.098-.3833.177-.5719.073-.1826.17-.359.28-.5233.109-.1643.237-.3225.377-.4624.14-.14.298-.2678.462-.3773.165-.1095.341-.2068.524-.2799.182-.073.377-.1338.572-.1764.389-.0791.797-.0791 1.186 0 .195.0426.39.1034.572.1764.183.0731.359.1704.523.2799.171.1095.323.2373.463.3773.14.1399.267.2981.377.4624s.207.3407.28.5233c.079.1886.134.3772.176.5719.037.1947.061.3955.061.5963 0 .1947-.024.3955-.061.5902-.042.1947-.097.3894-.176.572-.073.1825-.17.3589-.28.5232-.11.1704-.237.3225-.377.4625-.14.1399-.292.2677-.463.3772-.164.1095-.34.2069-.523.2799-.182.0791-.377.1338-.572.1764-.195.0365-.396.0609-.59.0609z" fill="#fff"/></g></svg>